<?xml version="1.0" standalone="no"?>
<!DOCTYPE svg PUBLIC "-//W3C//DTD SVG 20010904//EN"
 "http://www.w3.org/TR/2001/REC-SVG-20010904/DTD/svg10.dtd">
<svg version="1.0" xmlns="http://www.w3.org/2000/svg"
 width="110.000000pt" height="110.000000pt" viewBox="0 0 110.000000 110.000000"
 preserveAspectRatio="xMidYMid meet">

<g transform="translate(0.000000,110.000000) scale(0.100000,-0.100000)"
fill="#000000" stroke="none">
<path d="M293 620 l-181 -331 36 -64 36 -65 368 0 368 0 32 64 c27 55 30 68
20 88 -6 13 -87 160 -181 328 l-169 305 -74 3 -73 3 -182 -331z m317 305 c6
-8 75 -128 152 -267 77 -139 153 -277 170 -305 l29 -53 -280 0 -281 0 25 50
25 50 170 0 c94 0 170 1 170 3 0 2 -65 120 -145 262 -80 142 -145 262 -145
267 0 15 97 9 110 -7z m7 -243 c72 -130 135 -245 139 -255 6 -16 1 -18 -47
-15 l-54 3 -80 147 c-44 80 -83 149 -87 153 -8 9 -11 4 -168 -283 l-133 -243
-28 50 -27 51 171 315 c95 173 174 314 177 314 3 0 64 -106 137 -237z m-162
-241 c-47 -83 -85 -153 -85 -156 0 -3 133 -5 295 -5 l295 0 -25 -50 -25 -50
-351 0 c-329 0 -351 1 -344 17 3 10 65 125 138 255 l131 238 28 -49 29 -50
-86 -150z m139 50 c20 -38 36 -72 36 -75 0 -3 -36 -6 -80 -6 -51 0 -80 4 -80
11 0 16 70 139 80 139 4 0 24 -31 44 -69z"/>
</g>
</svg>
